<svg xmlns="http://www.w3.org/2000/svg" version="1.1" width="900px" height="900px"> <path xmlns="http://www.w3.org/2000/svg" d=" M 237.868 874.624 L 167.157 803.553 L 379.289 591.421 L 308.579 520.711 L 96.4466 732.843 L 25.7359 662.132 L 237.868 450 L 25.739 237.868 L 237.868 25.7359 L 379.289 167.157 L 308.579 237.868 L 237.868 167.157 L 167.157 237.868 L 662.132 732.843 L 732.843 662.132 L 662.132 591.421 L 732.843 520.711 L 874.264 662.132 L 662.132 874.264 L 450 662.132 L 237.868 874.624  " fill="#ffffff"/> <path xmlns="http://www.w3.org/2000/svg" d=" M 591.421 520.711 L 520.711 450 L 803.553 167.157 L 874.264 237.868 L 591.421 520.711  " fill="#ffffff"/> <path xmlns="http://www.w3.org/2000/svg" d=" M 732.843 96.4466 L 662.132 25.7359 L 379.289 308.579 L 450 379.289 L 732.843 96.4466  " fill="#ffffff"/> </svg>